<svg id="Layer_1" data-name="Layer 1" xmlns="http://www.w3.org/2000/svg" viewBox="0 0 586.91 600.9" width="16" height="16" fill="white">
	<title>
		hdr
	</title>
	<polygon points="223.88 245.67 251.47 245.67 251.47 0 201.66 0 201.66 156.49 49.8 156.49 49.8 0 0 0 0 354.98 49.8 354.98 49.8 203.86 201.66 203.86 201.66 354.98 202.15 354.98 202.15 245.67 223.88 245.67" />
	<path d="M403.83,372.82h19.73c.18-2.21.29-4.45.29-6.77q0-16.35-6-28.93A45.32,45.32,0,0,0,401,317.71q-10.86-6.84-25.27-6.84h-5.61v61.95Z" transform="translate(-30.78 -17.84)" />
	<path d="M601.83,76.19q-15.89-28.57-46.15-43.46t-73-14.89H370.14V263.51h3.66q25.67,0,46.14,8.85V65.2h64.21q39.3,0,60.91,20.38t21.61,57.5V247.57q0,37.11-21.61,57.5t-60.91,20.38H470a116.61,116.61,0,0,1,6.8,40.6c0,2.29-.07,4.54-.18,6.77h5.79q42.72,0,73.12-14.9t46.27-43.45q15.85-28.58,15.87-68.85V145Q617.7,104.76,601.83,76.19Z" transform="translate(-30.78 -17.84)" />
	<path d="M470,325.45a98.17,98.17,0,0,0-6-13.23,89,89,0,0,0-36.13-36c-2.58-1.41-5.23-2.68-7.94-3.85v53.09Z" transform="translate(-30.78 -17.84)" />
	<path d="M417.87,395a45,45,0,0,1-17,19.41,46.61,46.61,0,0,1-25.15,6.84h-93V310.87h87.4V263.51H282.25V372.82H232.93V618.74h49.81V468.59h74.14l75.76,150.15h59.08L409.87,463.39a98.27,98.27,0,0,0,17.76-7.5,89.79,89.79,0,0,0,36.26-36q11.48-20.69,12.76-47.06H423.56A63.22,63.22,0,0,1,417.87,395Z" transform="translate(-30.78 -17.84)" />
</svg>
